<svg viewBox="0 0 100 100" xmlns="http://www.w3.org/2000/svg">
    <!-- Background Circle with Gradient -->
    <defs>
        <linearGradient id="bgGrad" x1="0%" y1="0%" x2="100%" y2="100%">
            <stop offset="0%" style="stop-color:#6366f1"/>
            <stop offset="50%" style="stop-color:#8b5cf6"/>
            <stop offset="100%" style="stop-color:#a855f7"/>
        </linearGradient>
        <linearGradient id="faceGrad" x1="0%" y1="0%" x2="100%" y2="100%">
            <stop offset="0%" style="stop-color:#1e1b4b"/>
            <stop offset="100%" style="stop-color:#312e81"/>
        </linearGradient>
        <filter id="glow">
            <feGaussianBlur stdDeviation="2" result="coloredBlur"/>
            <feMerge>
                <feMergeNode in="coloredBlur"/>
                <feMergeNode in="SourceGraphic"/>
            </feMerge>
        </filter>
    </defs>
    
    <!-- Main Circle -->
    <circle cx="50" cy="50" r="48" fill="url(#bgGrad)"/>
    
    <!-- Robot Head -->
    <rect x="22" y="25" width="56" height="45" rx="10" fill="url(#faceGrad)" stroke="#818cf8" stroke-width="2"/>
    
    <!-- Antenna -->
    <line x1="50" y1="25" x2="50" y2="15" stroke="#818cf8" stroke-width="3" stroke-linecap="round"/>
    <circle cx="50" cy="12" r="5" fill="#22d3ee" filter="url(#glow)">
        <animate attributeName="opacity" values="1;0.5;1" dur="2s" repeatCount="indefinite"/>
    </circle>
    
    <!-- Eyes -->
    <ellipse cx="36" cy="42" rx="8" ry="9" fill="#0f172a"/>
    <ellipse cx="64" cy="42" rx="8" ry="9" fill="#0f172a"/>
    
    <!-- Eye Glow -->
    <ellipse cx="36" cy="42" rx="5" ry="6" fill="#22d3ee" filter="url(#glow)">
        <animate attributeName="opacity" values="1;0.7;1" dur="3s" repeatCount="indefinite"/>
    </ellipse>
    <ellipse cx="64" cy="42" rx="5" ry="6" fill="#22d3ee" filter="url(#glow)">
        <animate attributeName="opacity" values="1;0.7;1" dur="3s" repeatCount="indefinite"/>
    </ellipse>
    
    <!-- Eye Highlights -->
    <circle cx="38" cy="40" r="2" fill="#fff" opacity="0.8"/>
    <circle cx="66" cy="40" r="2" fill="#fff" opacity="0.8"/>
    
    <!-- Mouth/Speaker Grille -->
    <rect x="35" y="55" width="30" height="8" rx="4" fill="#0f172a"/>
    <line x1="40" y1="55" x2="40" y2="63" stroke="#22d3ee" stroke-width="1.5" opacity="0.6"/>
    <line x1="45" y1="55" x2="45" y2="63" stroke="#22d3ee" stroke-width="1.5" opacity="0.8"/>
    <line x1="50" y1="55" x2="50" y2="63" stroke="#22d3ee" stroke-width="1.5"/>
    <line x1="55" y1="55" x2="55" y2="63" stroke="#22d3ee" stroke-width="1.5" opacity="0.8"/>
    <line x1="60" y1="55" x2="60" y2="63" stroke="#22d3ee" stroke-width="1.5" opacity="0.6"/>
    
    <!-- Side Ear Panels -->
    <rect x="15" y="38" width="7" height="16" rx="3" fill="#818cf8"/>
    <rect x="78" y="38" width="7" height="16" rx="3" fill="#818cf8"/>
    
    <!-- Decorative Dots -->
    <circle cx="28" cy="32" r="2" fill="#f472b6"/>
    <circle cx="72" cy="32" r="2" fill="#f472b6"/>
    
    <!-- Bottom Chin Detail -->
    <path d="M 35 70 Q 50 80 65 70" stroke="#818cf8" stroke-width="2" fill="none"/>
</svg>
